<?xml version="1.0" encoding="UTF-8" standalone="no"?>
<svg width="376px" height="68px" viewBox="0 0 376 68" version="1.1" xmlns="http://www.w3.org/2000/svg" xmlns:xlink="http://www.w3.org/1999/xlink" xmlns:sketch="http://www.bohemiancoding.com/sketch/ns">
    <!-- Generator: Sketch 3.4.4 (17249) - http://www.bohemiancoding.com/sketch -->
    <title>NSDMDH + Path</title>
    <desc>Created with Sketch.</desc>
    <defs></defs>
    <g id="Page-1" stroke="none" stroke-width="1" fill="none" fill-rule="evenodd" sketch:type="MSPage">
        <g id="NSDMDH-+-Path" sketch:type="MSLayerGroup" fill="#000000">
            <path d="M101.5,14.755 C101.049998,15.4750036 100.577502,16.0149982 100.0825,16.375 C99.5874975,16.7350018 98.9500039,16.915 98.17,16.915 C97.4799965,16.915 96.737504,16.6975022 95.9425,16.2625 C95.147496,15.8274978 94.247505,15.3400027 93.2425,14.8 C92.237495,14.2599973 91.0900064,13.7725022 89.8,13.3375 C88.5099935,12.9024978 87.0400082,12.685 85.39,12.685 C82.5399857,12.685 80.417507,13.2924939 79.0225,14.5075 C77.627493,15.7225061 76.93,17.3649897 76.93,19.435 C76.93,20.7550066 77.3499958,21.8499957 78.19,22.72 C79.0300042,23.5900044 80.1324932,24.3399969 81.4975,24.97 C82.8625068,25.6000032 84.4224912,26.1774974 86.1775,26.7025 C87.9325088,27.2275026 89.7249908,27.8124968 91.555,28.4575 C93.3850091,29.1025032 95.1774912,29.8599957 96.9325,30.73 C98.6875088,31.6000044 100.247493,32.7099933 101.6125,34.06 C102.977507,35.4100068 104.079996,37.0524903 104.92,38.9875 C105.760004,40.9225097 106.18,43.2549864 106.18,45.985 C106.18,49.0150152 105.655005,51.8499868 104.605,54.49 C103.554995,57.1300132 102.03251,59.4324902 100.0375,61.3975 C98.04249,63.3625098 95.5825146,64.9074944 92.6575,66.0325 C89.7324854,67.1575056 86.4100186,67.72 82.69,67.72 C80.6499898,67.72 78.5725106,67.5100021 76.4575,67.09 C74.3424894,66.6699979 72.2950099,66.0775038 70.315,65.3125 C68.3349901,64.5474962 66.4750087,63.6400053 64.735,62.59 C62.9949913,61.5399948 61.4800064,60.3700065 60.19,59.08 L64.69,51.97 C65.0500018,51.4599975 65.5224971,51.0325017 66.1075,50.6875 C66.6925029,50.3424983 67.3299965,50.17 68.02,50.17 C68.9200045,50.17 69.8274954,50.4549972 70.7425,51.025 C71.6575046,51.5950029 72.6924942,52.2249966 73.8475,52.915 C75.0025058,53.6050035 76.3299925,54.2349972 77.83,54.805 C79.3300075,55.3750029 81.0999898,55.66 83.14,55.66 C85.9000138,55.66 88.0449923,55.0525061 89.575,53.8375 C91.1050076,52.6224939 91.87,50.6950132 91.87,48.055 C91.87,46.5249924 91.4500042,45.2800048 90.61,44.32 C89.7699958,43.3599952 88.6675068,42.5650032 87.3025,41.935 C85.9374932,41.3049969 84.3850087,40.7500024 82.645,40.27 C80.9049913,39.7899976 79.1200091,39.2575029 77.29,38.6725 C75.4599908,38.0874971 73.6750087,37.3675043 71.935,36.5125 C70.1949913,35.6574957 68.6425068,34.532507 67.2775,33.1375 C65.9124932,31.742493 64.8100042,30.0025104 63.97,27.9175 C63.1299958,25.8324896 62.71,23.2600153 62.71,20.2 C62.71,17.7399877 63.204995,15.3400117 64.195,13 C65.1850049,10.6599883 66.6399904,8.57500915 68.56,6.745 C70.4800096,4.91499085 72.834986,3.45250548 75.625,2.3575 C78.4150139,1.26249453 81.609982,0.715 85.21,0.715 C87.22001,0.715 89.1774905,0.872498425 91.0825,1.1875 C92.9875095,1.50250158 94.7949914,1.96749693 96.505,2.5825 C98.2150085,3.19750308 99.8124926,3.93249573 101.2975,4.7875 C102.782507,5.64250428 104.109994,6.6099946 105.28,7.69 L101.5,14.755 Z M169.625,34.195 C169.625,38.9350237 168.807508,43.30748 167.1725,47.3125 C165.537492,51.31752 163.235015,54.7824854 160.265,57.7075 C157.294985,60.6325146 153.717521,62.9124918 149.5325,64.5475 C145.347479,66.1825082 140.705025,67 135.605,67 L110.135,67 L110.135,1.435 L135.605,1.435 C140.705025,1.435 145.347479,2.25999175 149.5325,3.91 C153.717521,5.56000825 157.294985,7.83998545 160.265,10.75 C163.235015,13.6600146 165.537492,17.11748 167.1725,21.1225 C168.807508,25.12752 169.625,29.4849765 169.625,34.195 L169.625,34.195 Z M154.055,34.195 C154.055,30.9549838 153.635004,28.0300131 152.795,25.42 C151.954996,22.809987 150.747508,20.5975091 149.1725,18.7825 C147.597492,16.9674909 145.670011,15.5725049 143.39,14.5975 C141.109989,13.6224951 138.515015,13.135 135.605,13.135 L125.435,13.135 L125.435,55.3 L135.605,55.3 C138.515015,55.3 141.109989,54.8125049 143.39,53.8375 C145.670011,52.8624951 147.597492,51.4675091 149.1725,49.6525 C150.747508,47.8374909 151.954996,45.6250131 152.795,43.015 C153.635004,40.404987 154.055,37.4650164 154.055,34.195 L154.055,34.195 Z M247.335,1.435 L247.335,67 L233.925,67 L233.925,29.29 C233.925,28.4199957 233.9475,27.4750051 233.9925,26.455 C234.0375,25.4349949 234.119999,24.4000053 234.24,23.35 L216.825,57.055 C216.284997,58.1050053 215.557505,58.8999973 214.6425,59.44 C213.727495,59.9800027 212.685006,60.25 211.515,60.25 L209.445,60.25 C208.274994,60.25 207.232505,59.9800027 206.3175,59.44 C205.402495,58.8999973 204.675003,58.1050053 204.135,57.055 L186.72,23.26 C186.81,24.3400054 186.885,25.3974948 186.945,26.4325 C187.005,27.4675052 187.035,28.4199957 187.035,29.29 L187.035,67 L173.625,67 L173.625,1.435 L185.235,1.435 C185.895003,1.435 186.472498,1.44999985 186.9675,1.48 C187.462502,1.51000015 187.904998,1.59999925 188.295,1.75 C188.685002,1.90000075 189.037498,2.13249843 189.3525,2.4475 C189.667502,2.76250158 189.974998,3.20499715 190.275,3.775 L207.15,37.03 C207.750003,38.1700057 208.327497,39.3549939 208.8825,40.585 C209.437503,41.8150062 209.969997,43.0749936 210.48,44.365 C210.990003,43.0449934 211.522497,41.7550063 212.0775,40.495 C212.632503,39.2349937 213.224997,38.0350057 213.855,36.895 L230.685,3.775 C230.985001,3.20499715 231.292498,2.76250158 231.6075,2.4475 C231.922502,2.13249843 232.274998,1.90000075 232.665,1.75 C233.055002,1.59999925 233.497498,1.51000015 233.9925,1.48 C234.487502,1.44999985 235.064997,1.435 235.725,1.435 L247.335,1.435 Z M314.515,34.195 C314.515,38.9350237 313.697508,43.30748 312.0625,47.3125 C310.427492,51.31752 308.125015,54.7824854 305.155,57.7075 C302.184985,60.6325146 298.607521,62.9124918 294.4225,64.5475 C290.237479,66.1825082 285.595025,67 280.495,67 L255.025,67 L255.025,1.435 L280.495,1.435 C285.595025,1.435 290.237479,2.25999175 294.4225,3.91 C298.607521,5.56000825 302.184985,7.83998545 305.155,10.75 C308.125015,13.6600146 310.427492,17.11748 312.0625,21.1225 C313.697508,25.12752 314.515,29.4849765 314.515,34.195 L314.515,34.195 Z M298.945,34.195 C298.945,30.9549838 298.525004,28.0300131 297.685,25.42 C296.844996,22.809987 295.637508,20.5975091 294.0625,18.7825 C292.487492,16.9674909 290.560011,15.5725049 288.28,14.5975 C285.999989,13.6224951 283.405015,13.135 280.495,13.135 L270.325,13.135 L270.325,55.3 L280.495,55.3 C283.405015,55.3 285.999989,54.8125049 288.28,53.8375 C290.560011,52.8624951 292.487492,51.4675091 294.0625,49.6525 C295.637508,47.8374909 296.844996,45.6250131 297.685,43.015 C298.525004,40.404987 298.945,37.4650164 298.945,34.195 L298.945,34.195 Z M375.755,1.435 L375.755,67 L360.455,67 L360.455,39.28 L333.815,39.28 L333.815,67 L318.515,67 L318.515,1.435 L333.815,1.435 L333.815,28.84 L360.455,28.84 L360.455,1.435 L375.755,1.435 Z" id="NSDMDH" sketch:type="MSShapeGroup"></path>
            <path d="M37.3060184,55.565 L44.01,64.045 C44.7900039,64.9750047 45.577496,65.6274981 46.3725,66.0025 C47.167504,66.3775019 48.1499941,66.565 49.32,66.565 L57.24,66.565 L57.24,1 L43.83,1 L43.83,12.565 L50.655,12.565 L50.655,55.565 L37.3060184,55.565 Z M13.41,55.565 L13.41,66.565 L0,66.565 L0,1 L8.01,1 C8.6700033,1 9.22499775,1.0299997 9.675,1.09 C10.1250022,1.1500003 10.5299982,1.26249918 10.89,1.4275 C11.2500018,1.59250083 11.5949983,1.8249985 11.925,2.125 C12.2550016,2.4250015 12.6299979,2.82999745 13.05,3.34 L20.3562,12.565 L7.655,12.565 L7.655,55.565 L13.41,55.565 Z" id="Path" sketch:type="MSShapeGroup"></path>
        </g>
    </g>
</svg>